<svg width="28" height="28" viewBox="0 0 28 28" fill="none" xmlns="http://www.w3.org/2000/svg">
<path d="M26.5484 0.919987C25.9289 0.328263 25.1051 -0.00192261 24.2484 -0.00192261C23.3917 -0.00192261 22.568 0.328263 21.9484 0.919987L20.8884 1.99999L8.15843 14.71C8.05813 14.808 7.98862 14.9331 7.95843 15.07L6.89843 19.67C6.87284 19.7799 6.8724 19.8943 6.89716 20.0044C6.92191 20.1146 6.97121 20.2177 7.04139 20.3062C7.11157 20.3946 7.20081 20.4661 7.30245 20.5152C7.4041 20.5644 7.51553 20.5899 7.62843 20.59H7.79843L12.3984 19.53C12.5335 19.4898 12.657 19.4178 12.7584 19.32L25.4884 6.57999L26.5484 5.51999C27.1566 4.90904 27.4981 4.08206 27.4981 3.21999C27.4981 2.35791 27.1566 1.53093 26.5484 0.919987V0.919987ZM11.8484 18.09L8.62843 18.83L9.37843 15.62L21.3784 3.61999L23.8984 6.04999L11.8484 18.09ZM25.4884 4.45999L24.9984 4.99999L22.4784 2.50999L22.9984 1.99999C23.333 1.68204 23.7769 1.50475 24.2384 1.50475C24.7 1.50475 25.1439 1.68204 25.4784 1.99999C25.8057 2.32968 25.9894 2.77541 25.9894 3.23999C25.9894 3.70456 25.8057 4.1503 25.4784 4.47999L25.4884 4.45999Z" fill="white"/>
<path d="M24.75 14C24.5511 14 24.3603 14.079 24.2197 14.2197C24.079 14.3603 24 14.5511 24 14.75V23C24.008 23.3911 23.9378 23.7799 23.7937 24.1435C23.6495 24.5072 23.4342 24.8384 23.1604 25.1178C22.8866 25.3972 22.5598 25.6191 22.1991 25.7706C21.8385 25.9221 21.4512 26.0001 21.06 26H4.44C4.04881 26.0001 3.66154 25.9221 3.30088 25.7706C2.94021 25.6191 2.61341 25.3972 2.3396 25.1178C2.0658 24.8384 1.85051 24.5072 1.70634 24.1435C1.56216 23.7799 1.49202 23.3911 1.5 23V6.41C1.5 5.63026 1.80975 4.88246 2.36111 4.33111C2.91246 3.77975 3.66026 3.47 4.44 3.47H12.75C12.9489 3.47 13.1397 3.39098 13.2803 3.25033C13.421 3.10968 13.5 2.91891 13.5 2.72C13.5 2.52109 13.421 2.33032 13.2803 2.18967C13.1397 2.04902 12.9489 1.97 12.75 1.97H4.44C3.26244 1.97 2.13311 2.43779 1.30045 3.27045C0.467784 4.10311 0 5.23244 0 6.41L0 23C0 23.5831 0.114844 24.1604 0.337975 24.6991C0.561106 25.2378 0.888154 25.7273 1.30045 26.1396C1.71274 26.5518 2.2022 26.8789 2.74089 27.102C3.27957 27.3252 3.85693 27.44 4.44 27.44H21.06C21.6431 27.44 22.2204 27.3252 22.7591 27.102C23.2978 26.8789 23.7873 26.5518 24.1996 26.1396C24.6118 25.7273 24.9389 25.2378 25.162 24.6991C25.3852 24.1604 25.5 23.5831 25.5 23V14.72C25.4922 14.5263 25.4098 14.3432 25.27 14.209C25.1302 14.0747 24.9438 13.9998 24.75 14V14Z" fill="white"/>
</svg>
