<svg width="20" height="20" viewBox="0 0 20 20" fill="none" xmlns="http://www.w3.org/2000/svg">
<path d="M5.82272 8.99243C5.62243 8.99243 5.42665 9.05182 5.26011 9.1631C5.09358 9.27437 4.96379 9.43252 4.88714 9.61756C4.8105 9.8026 4.79044 10.0062 4.82952 10.2026C4.86859 10.3991 4.96504 10.5795 5.10666 10.7211C5.24828 10.8628 5.42872 10.9592 5.62516 10.9983C5.82159 11.0374 6.02521 11.0173 6.21024 10.9407C6.39528 10.864 6.55344 10.7342 6.66471 10.5677C6.77598 10.4012 6.83538 10.2054 6.83538 10.0051C6.83538 9.73652 6.72868 9.47894 6.53877 9.28903C6.34886 9.09912 6.09129 8.99243 5.82272 8.99243Z" fill="#555555"/>
<path d="M9.87338 8.99243C9.67309 8.99243 9.4773 9.05182 9.31077 9.1631C9.14424 9.27437 9.01445 9.43252 8.9378 9.61756C8.86116 9.8026 8.8411 10.0062 8.88018 10.2026C8.91925 10.3991 9.0157 10.5795 9.15732 10.7211C9.29894 10.8628 9.47938 10.9592 9.67582 10.9983C9.87225 11.0374 10.0759 11.0173 10.2609 10.9407C10.4459 10.864 10.6041 10.7342 10.7154 10.5677C10.8266 10.4012 10.886 10.2054 10.886 10.0051C10.886 9.73652 10.7793 9.47894 10.5894 9.28903C10.3995 9.09912 10.1419 8.99243 9.87338 8.99243Z" fill="#555555"/>
<path d="M13.924 8.99243C13.7238 8.99243 13.528 9.05182 13.3614 9.1631C13.1949 9.27437 13.0651 9.43252 12.9885 9.61756C12.9118 9.8026 12.8918 10.0062 12.9308 10.2026C12.9699 10.3991 13.0664 10.5795 13.208 10.7211C13.3496 10.8628 13.53 10.9592 13.7265 10.9983C13.9229 11.0374 14.1265 11.0173 14.3116 10.9407C14.4966 10.864 14.6548 10.7342 14.766 10.5677C14.8773 10.4012 14.9367 10.2054 14.9367 10.0051C14.9367 9.73652 14.83 9.47894 14.6401 9.28903C14.4502 9.09912 14.1926 8.99243 13.924 8.99243Z" fill="#555555"/>
<path d="M19.2405 20.0006C19.1439 19.9985 19.0483 19.9814 18.957 19.95L14.9063 18.35C12.8496 19.5833 10.4152 20.0285 8.05507 19.6029C5.69494 19.1772 3.56944 17.9097 2.07316 16.0355C0.576874 14.1613 -0.188534 11.8079 -0.0809684 9.41212C0.0265977 7.01633 0.99983 4.74096 2.65805 3.00842C4.31626 1.27589 6.54681 0.203897 8.93558 -0.0085364C11.3244 -0.220969 13.7091 0.440589 15.647 1.85332C17.5849 3.26605 18.9444 5.33397 19.473 7.67318C20.0017 10.0124 19.6636 12.464 18.5215 14.5728L19.9291 19.0082C19.9739 19.1455 19.9787 19.2927 19.9428 19.4326C19.907 19.5725 19.8319 19.6993 19.7266 19.7981C19.5944 19.9222 19.4217 19.9941 19.2405 20.0006ZM9.87341 1.51959C8.57145 1.51763 7.28706 1.81998 6.1227 2.40253C4.95834 2.98508 3.94625 3.8317 3.16718 4.87485C2.38811 5.91799 1.86362 7.12877 1.63556 8.4106C1.4075 9.69243 1.48219 11.0098 1.85366 12.2577C2.22513 13.5055 2.8831 14.6493 3.77507 15.5977C4.66705 16.5461 5.76834 17.2729 6.99108 17.7201C8.21381 18.1673 9.52415 18.3226 10.8175 18.1735C12.1109 18.0244 13.3516 17.5751 14.4405 16.8614C14.5442 16.7979 14.6608 16.7585 14.7818 16.7463C14.9027 16.734 15.0249 16.7491 15.1392 16.7905L18.0354 17.9449L17.0228 14.7145C16.9916 14.6122 16.9818 14.5046 16.994 14.3983C17.0062 14.292 17.0401 14.1894 17.0937 14.0968C17.841 12.8272 18.2389 11.3825 18.2469 9.9093C18.2549 8.43614 17.8728 6.98711 17.1394 5.70948C16.4059 4.43186 15.3473 3.37118 14.0711 2.63526C12.7949 1.89934 11.3466 1.51441 9.87341 1.51959Z" fill="#555555"/>
</svg>
