<svg width="32" height="32" viewBox="0 0 32 32" fill="none" xmlns="http://www.w3.org/2000/svg">
<path d="M32 15.9999C32.0024 13.2843 31.3136 10.6127 29.9984 8.2368C28.6832 5.86088 26.7849 3.85882 24.4822 2.41915C22.1796 0.979475 19.5484 0.149575 16.8365 0.0076011C14.1245 -0.134373 11.4211 0.416251 8.98073 1.60762C6.54036 2.79899 4.44339 4.59189 2.88728 6.81749C1.33117 9.04309 0.367147 11.6281 0.0859883 14.3292C-0.195171 17.0303 0.21579 19.7584 1.28017 22.2568C2.34455 24.7552 4.02731 26.9415 6.17 28.6099C6.48239 27.2982 7.22753 26.1299 8.28524 25.2935C9.34295 24.4572 10.6516 24.0015 12 23.9999H20C21.3484 24.0015 22.657 24.4572 23.7148 25.2935C24.7725 26.1299 25.5176 27.2982 25.83 28.6099C27.7494 27.1154 29.3027 25.2029 30.3719 23.0178C31.441 20.8327 31.9978 18.4326 32 15.9999Z" fill="#BBBBBB"/>
<path d="M19.9999 24H11.9999C10.6515 24.0015 9.34288 24.4572 8.28516 25.2936C7.22745 26.13 6.48231 27.2983 6.16992 28.61C8.97602 30.806 12.4367 31.9992 15.9999 31.9992C19.5632 31.9992 23.0238 30.806 25.8299 28.61C25.5175 27.2983 24.7724 26.13 23.7147 25.2936C22.657 24.4572 21.3484 24.0015 19.9999 24Z" fill="white"/>
<path d="M16 22C20.1421 22 23.5 18.6421 23.5 14.5C23.5 10.3579 20.1421 7 16 7C11.8579 7 8.5 10.3579 8.5 14.5C8.5 18.6421 11.8579 22 16 22Z" fill="white"/>
<path d="M16 1C18.9667 1 21.8668 1.87973 24.3336 3.52796C26.8003 5.17618 28.7229 7.51886 29.8582 10.2597C30.9935 13.0006 31.2906 16.0166 30.7118 18.9264C30.133 21.8361 28.7044 24.5088 26.6066 26.6066C24.5088 28.7044 21.8361 30.133 18.9264 30.7118C16.0166 31.2906 13.0006 30.9935 10.2598 29.8582C7.51886 28.7229 5.17618 26.8003 3.52796 24.3336C1.87974 21.8668 1.00001 18.9667 1.00001 16C1.00001 12.0218 2.58036 8.20644 5.39341 5.3934C8.20645 2.58035 12.0218 1 16 1ZM16 0C12.8355 0 9.74207 0.938384 7.11088 2.69649C4.4797 4.45459 2.42894 6.95345 1.21793 9.87706C0.0069325 12.8007 -0.309921 16.0177 0.307443 19.1214C0.924806 22.2251 2.44866 25.0761 4.6863 27.3137C6.92394 29.5513 9.77487 31.0752 12.8786 31.6926C15.9823 32.3099 19.1993 31.9931 22.1229 30.7821C25.0466 29.5711 27.5454 27.5203 29.3035 24.8891C31.0616 22.2579 32 19.1645 32 16C32 11.7565 30.3143 7.68687 27.3137 4.68629C24.3131 1.68571 20.2435 0 16 0V0Z" fill="#EBEBEB"/>
</svg>
