<svg width="16" height="16" viewBox="0 0 16 16" fill="none" xmlns="http://www.w3.org/2000/svg">
<path d="M1.53033 0.46967C1.23744 0.176777 0.762563 0.176777 0.46967 0.46967C0.176777 0.762563 0.176777 1.23744 0.46967 1.53033L1.53033 0.46967ZM14.4697 15.5303C14.7626 15.8232 15.2374 15.8232 15.5303 15.5303C15.8232 15.2374 15.8232 14.7626 15.5303 14.4697L14.4697 15.5303ZM0.46967 1.53033L14.4697 15.5303L15.5303 14.4697L1.53033 0.46967L0.46967 1.53033Z" fill="black"/>
<path d="M15.5303 1.53033C15.8232 1.23744 15.8232 0.762563 15.5303 0.46967C15.2374 0.176777 14.7626 0.176777 14.4697 0.46967L15.5303 1.53033ZM0.46967 14.4697C0.176776 14.7626 0.176776 15.2374 0.46967 15.5303C0.762562 15.8232 1.23744 15.8232 1.53033 15.5303L0.46967 14.4697ZM14.4697 0.46967L0.46967 14.4697L1.53033 15.5303L15.5303 1.53033L14.4697 0.46967Z" fill="black"/>
</svg>
