<svg width="96" height="94" viewBox="0 0 96 94" fill="none" xmlns="http://www.w3.org/2000/svg">
<path d="M94.5226 64.2815C93.6271 38.6595 94.2092 35.7043 91.4977 28.6595C90.2738 25.4854 87.2639 17.5251 79.6867 10.6744C76.3036 7.59474 70.423 2.28129 61.2638 1.18676C56.7824 0.674657 52.2433 1.20417 48.0001 2.73403C43.7567 1.20487 39.2177 0.675379 34.7363 1.18676C25.5771 2.28129 19.6965 7.59474 16.2935 10.6744C8.71138 17.5251 5.70142 25.4854 4.47256 28.6595C1.7611 35.7043 2.33822 38.6595 1.44767 64.2815C0.825778 82.0229 0.407866 84.7343 3.00986 87.6647C6.69147 91.799 14.2835 92.1721 29.3134 92.7493C31.801 92.8438 39.6617 92.7493 48.7165 92.7493C57.5324 92.7493 64.2489 92.8388 66.6768 92.7493C81.7116 92.1721 89.3037 91.799 92.9803 87.6647C95.5823 84.7343 95.1594 82.0229 94.5226 64.2815Z" fill="#DBDBDB"/>
<path d="M63.0191 93.784H57.9892C55.3076 93.784 52.1633 93.7542 48.7105 93.7591C45.1235 93.7591 41.7453 93.7591 38.7603 93.7591C34.2826 93.7591 30.8 93.794 29.2826 93.7591C14.4666 93.192 6.30742 92.8785 2.27258 88.3362C-0.324444 85.4208 -0.214991 82.978 0.282523 69.4307C0.337249 67.8735 0.401926 66.162 0.466603 64.2864C0.650683 58.9481 0.775062 54.5301 0.874564 50.9779C1.25765 37.3211 1.37208 34.0624 3.55617 28.341L3.59597 28.2415C4.89448 24.8136 7.95419 16.8783 15.6209 9.94293C19.1831 6.71904 25.1433 1.33096 34.616 0.196632C39.1325 -0.321904 43.7078 0.188353 47.9991 1.68917C52.2887 0.188597 56.8624 -0.321663 61.3773 0.196632C70.8549 1.33096 76.8002 6.71904 80.3723 9.93796C88.054 16.8733 91.1037 24.8136 92.4072 28.2017L92.447 28.3012C94.651 34.0375 94.7406 37.2813 95.1236 50.9381C95.2231 54.4854 95.3475 58.8983 95.5366 64.2466C95.6012 66.1222 95.6659 67.8337 95.7207 69.3909C96.2182 82.9631 96.3127 85.4059 93.7306 88.2964C89.6908 92.8387 81.5315 93.1522 66.7206 93.7193C65.9046 93.7741 64.6708 93.784 63.0191 93.784ZM49.2926 91.7542C52.5364 91.7542 55.4767 91.7542 58.0141 91.779C62.1783 91.779 65.1832 91.8089 66.636 91.7542C80.8997 91.2069 88.7604 90.9084 92.2331 87.0029C94.2978 84.6795 94.2231 82.3561 93.7256 69.4655C93.6709 67.9033 93.6062 66.1968 93.5415 64.3162C93.3525 58.968 93.2281 54.5451 93.1286 50.9928C92.7455 37.2863 92.6659 34.4306 90.5813 29.0176L90.5415 28.9131C89.2977 25.6594 86.3624 18.0325 79.039 11.4355C75.6559 8.37576 69.9892 3.25634 61.1285 2.20161C56.8002 1.69691 52.4138 2.20794 48.3175 3.69416C48.1024 3.77378 47.8659 3.77378 47.6508 3.69416C43.5545 2.20812 39.1681 1.69709 34.8399 2.20161C26.009 3.23147 20.3423 8.35089 16.9592 11.4355C9.63081 18.0375 6.70045 25.6594 5.46662 28.9181L5.42682 29.0176C3.32731 34.4306 3.24771 37.3062 2.85965 50.9928C2.76014 54.5451 2.63576 58.953 2.45168 64.3162C2.38701 66.1968 2.32233 67.9033 2.26263 69.4655C1.76511 82.3561 1.70044 84.6795 3.75517 87.0029C7.23777 90.9084 15.0885 91.2069 29.3523 91.7542C30.8199 91.8089 34.3274 91.794 38.7304 91.7542C41.7155 91.7542 45.0986 91.7243 48.6807 91.7542H49.2926Z" fill="#DBDBDB"/>
<path d="M78.9752 51.968H79.005V64.4407C78.9827 71.9839 75.9763 79.2119 70.6424 84.5458C65.3085 89.8797 58.0805 92.8861 50.5373 92.9084H44.8507C37.3074 92.8861 30.0795 89.8797 24.7456 84.5458C19.4117 79.2119 16.4052 71.9839 16.3829 64.4407V51.968C18.347 44.7277 21.972 38.045 26.97 32.4505C33.9949 24.6047 44.0795 21.1321 48.0945 19.6196C50.1064 26.3153 53.4691 32.5277 57.9751 37.8734C61.0815 41.5725 64.7378 44.7723 68.8159 47.361C71.9916 49.3244 75.4059 50.8727 78.9752 51.968Z" fill="white"/>
<path d="M79.0542 55.6694C79.3278 55.2315 81.7706 51.4504 85.2731 52.0275C88.0294 52.4803 91.1239 55.5748 91.109 59.4405C91.109 63.6147 87.4622 66.2316 85.0791 66.8734C82.1786 67.6545 79.8253 65.8485 79.0542 65.1918" fill="white"/>
<path d="M83.6207 68.0626C81.6894 67.9868 79.8452 67.2389 78.4067 65.9481C78.2877 65.8707 78.1866 65.7687 78.1102 65.6489C78.0339 65.5291 77.984 65.3944 77.9641 65.2538C77.9441 65.1132 77.9545 64.9699 77.9945 64.8337C78.0345 64.6974 78.1033 64.5713 78.1961 64.4638C78.2889 64.3563 78.4036 64.2699 78.5326 64.2104C78.6616 64.151 78.8018 64.1198 78.9438 64.119C79.0858 64.1182 79.2264 64.1479 79.356 64.2059C79.4856 64.264 79.6013 64.3491 79.6953 64.4556C80.6505 65.2665 82.5808 66.5352 84.8197 65.9481C87.0585 65.3611 90.0983 62.963 90.1132 59.4804C90.1132 56.1819 87.4863 53.4456 85.1381 53.0575C82.2923 52.5899 80.1629 55.8685 79.9191 56.2416C79.8519 56.3565 79.7623 56.4567 79.6556 56.5363C79.5489 56.6159 79.4273 56.6732 79.2981 56.705C79.1688 56.7368 79.0345 56.7423 78.9031 56.7213C78.7717 56.7002 78.6458 56.653 78.533 56.5824C78.4201 56.5118 78.3225 56.4193 78.2461 56.3104C78.1696 56.2014 78.1158 56.0783 78.0878 55.9481C78.0598 55.818 78.0582 55.6836 78.083 55.5528C78.1079 55.4221 78.1587 55.2976 78.2326 55.1869C78.7301 54.3859 81.4316 50.4356 85.4615 51.0924C88.6953 51.6247 92.1431 55.1272 92.1281 59.4904C92.1281 64.2765 87.9689 67.177 85.3619 67.8785C84.7923 68.0169 84.2067 68.0788 83.6207 68.0626Z" fill="#DBDBDB"/>
<path d="M84.0741 60.5103H79.0542C78.7903 60.5103 78.5372 60.4055 78.3506 60.2189C78.164 60.0323 78.0592 59.7792 78.0592 59.5153C78.0592 59.2514 78.164 58.9983 78.3506 58.8117C78.5372 58.6251 78.7903 58.5203 79.0542 58.5203H84.0741C84.338 58.5203 84.5911 58.6251 84.7777 58.8117C84.9643 58.9983 85.0692 59.2514 85.0692 59.5153C85.0692 59.7792 84.9643 60.0323 84.7777 60.2189C84.5911 60.4055 84.338 60.5103 84.0741 60.5103Z" fill="#DBDBDB"/>
<path d="M16.4772 55.6694C16.2035 55.2315 13.7607 51.4504 10.2533 52.0275C7.49702 52.4803 4.40249 55.5748 4.41741 59.4405C4.41741 63.6147 8.06419 66.2316 10.4473 66.8734C13.3478 67.6545 15.701 65.8485 16.4772 65.1918" fill="white"/>
<path d="M11.905 68.0624C11.3253 68.0618 10.7482 67.9849 10.1886 67.8336C7.58158 67.1569 3.44226 64.2316 3.42236 59.4455C3.42236 55.0823 6.85521 51.5798 10.0891 51.0474C14.1189 50.3907 16.8204 54.341 17.3179 55.142C17.3882 55.2527 17.4359 55.3762 17.4584 55.5054C17.4809 55.6346 17.4778 55.7669 17.4491 55.8949C17.4205 56.0229 17.3669 56.144 17.2915 56.2512C17.216 56.3585 17.1202 56.4498 17.0095 56.5201C16.8987 56.5903 16.7752 56.6381 16.646 56.6606C16.5169 56.6831 16.3845 56.6799 16.2565 56.6513C16.1286 56.6226 16.0075 56.5691 15.9002 56.4936C15.793 56.4182 15.7016 56.3224 15.6314 56.2116C15.3975 55.8385 13.2632 52.5599 10.4124 53.0275C8.03929 53.4156 5.40247 56.1519 5.4373 59.4504C5.4373 62.933 8.54178 65.336 10.7308 65.9181C12.9199 66.5002 14.9 65.2564 15.8552 64.4256C15.9492 64.3191 16.0649 64.234 16.1945 64.1759C16.3241 64.1179 16.4647 64.0882 16.6067 64.089C16.7487 64.0898 16.8889 64.121 17.0179 64.1804C17.1469 64.2399 17.2616 64.3263 17.3544 64.4338C17.4472 64.5413 17.516 64.6674 17.556 64.8037C17.596 64.9399 17.6064 65.0832 17.5864 65.2238C17.5665 65.3644 17.5166 65.4991 17.4403 65.6189C17.3639 65.7387 17.2629 65.8407 17.1438 65.9181C15.703 67.2252 13.8487 67.9842 11.905 68.0624Z" fill="#DBDBDB"/>
<path d="M16.4711 60.5103H11.4661C11.2022 60.5103 10.9491 60.4055 10.7625 60.2189C10.5759 60.0323 10.4711 59.7792 10.4711 59.5153C10.4711 59.2514 10.5759 58.9983 10.7625 58.8117C10.9491 58.6251 11.2022 58.5203 11.4661 58.5203H16.4711C16.735 58.5203 16.9881 58.6251 17.1747 58.8117C17.3613 58.9983 17.4661 59.2514 17.4661 59.5153C17.4661 59.7792 17.3613 60.0323 17.1747 60.2189C16.9881 60.4055 16.735 60.5103 16.4711 60.5103Z" fill="#DBDBDB"/>
<path d="M50.5864 93.9034H44.8998C37.0852 93.8994 29.5914 90.7947 24.0638 85.2708C18.5361 79.7469 15.4263 72.2552 15.4171 64.4406V51.9679C15.4171 51.704 15.5219 51.4509 15.7086 51.2643C15.8952 51.0777 16.1482 50.9729 16.4121 50.9729C16.676 50.9729 16.9291 51.0777 17.1157 51.2643C17.3023 51.4509 17.4072 51.704 17.4072 51.9679V64.4406C17.4151 71.7244 20.312 78.7076 25.4625 83.858C30.6129 89.0085 37.5961 91.9054 44.8799 91.9133H50.5665C57.8503 91.9054 64.8335 89.0085 69.9839 83.858C75.1343 78.7076 78.0313 71.7244 78.0392 64.4406V51.9679C78.0392 51.704 78.144 51.4509 78.3306 51.2643C78.5173 51.0777 78.7703 50.9729 79.0342 50.9729C79.2981 50.9729 79.5512 51.0777 79.7378 51.2643C79.9244 51.4509 80.0293 51.704 80.0293 51.9679V64.4406C80.0201 72.2483 76.9157 79.734 71.3967 85.2567C65.8776 90.7795 58.3941 93.8889 50.5864 93.9034Z" fill="#DBDBDB"/>
<path d="M63.2428 64.3213C65.0782 64.3213 66.5662 62.8334 66.5662 60.998C66.5662 59.1625 65.0782 57.6746 63.2428 57.6746C61.4073 57.6746 59.9194 59.1625 59.9194 60.998C59.9194 62.8334 61.4073 64.3213 63.2428 64.3213Z" fill="#DBDBDB"/>
<path d="M32.358 64.3213C34.1935 64.3213 35.6814 62.8334 35.6814 60.998C35.6814 59.1625 34.1935 57.6746 32.358 57.6746C30.5225 57.6746 29.0346 59.1625 29.0346 60.998C29.0346 62.8334 30.5225 64.3213 32.358 64.3213Z" fill="#DBDBDB"/>
<path d="M68.1792 54.3063C67.9667 54.3062 67.7598 54.2381 67.5888 54.1118C67.4178 53.9856 67.2917 53.8079 67.229 53.6048C66.9572 52.7196 66.4499 51.9248 65.7614 51.3055C65.0729 50.6863 64.229 50.2658 63.32 50.089C62.411 49.9122 61.471 49.9857 60.6006 50.3018C59.7302 50.6179 58.962 51.1646 58.3782 51.8834C58.2113 52.088 57.97 52.2178 57.7073 52.2444C57.4447 52.271 57.1822 52.1921 56.9777 52.0252C56.7732 51.8583 56.6434 51.617 56.6168 51.3543C56.5902 51.0917 56.669 50.8292 56.8359 50.6247C57.647 49.627 58.7139 48.8683 59.9225 48.4296C61.1312 47.991 62.4363 47.8887 63.6985 48.1339C64.9607 48.3791 66.1326 48.9625 67.0892 49.8218C68.0457 50.6811 68.7509 51.784 69.1295 53.0128C69.1687 53.1379 69.1828 53.2695 69.1711 53.4001C69.1593 53.5307 69.1218 53.6576 69.0607 53.7737C68.9997 53.8897 68.9163 53.9926 68.8154 54.0763C68.7145 54.16 68.5981 54.223 68.4728 54.2616C68.3776 54.2906 68.2787 54.3057 68.1792 54.3063Z" fill="#DBDBDB"/>
<path d="M27.2224 54.1422C27.1141 54.141 27.0066 54.1225 26.904 54.0875C26.655 54.0025 26.4498 53.8224 26.3332 53.5865C26.2167 53.3506 26.1983 53.0782 26.2821 52.8288C26.6936 51.6102 27.4286 50.5265 28.4085 49.6935C29.3884 48.8604 30.5763 48.3094 31.8452 48.0994C33.114 47.8894 34.4161 48.0282 35.6122 48.5011C36.8082 48.9739 37.8532 49.763 38.6354 50.784C38.7964 50.9931 38.8677 51.2576 38.8336 51.5193C38.7996 51.7811 38.6629 52.0185 38.4538 52.1795C38.2447 52.3405 37.9801 52.4118 37.7184 52.3777C37.4567 52.3437 37.2193 52.207 37.0583 51.9979C36.4941 51.2631 35.7405 50.6957 34.8784 50.3565C34.0163 50.0173 33.0781 49.9192 32.1645 50.0726C31.2508 50.2259 30.3962 50.6251 29.6921 51.2272C28.988 51.8293 28.461 52.6117 28.1677 53.4904C28.0968 53.6834 27.9678 53.8497 27.7986 53.9664C27.6293 54.0831 27.428 54.1445 27.2224 54.1422Z" fill="#DBDBDB"/>
<path d="M48.7807 66.2764C47.0941 66.2764 45.5667 65.2217 45.3578 63.8436C45.3153 63.453 45.3578 63.0578 45.4823 62.6851C45.6068 62.3124 45.8104 61.971 46.0792 61.6844C46.4491 61.2692 46.9041 60.9383 47.4131 60.7143C47.9221 60.4903 48.4733 60.3783 49.0294 60.3859H49.0593C49.3232 60.3859 49.5762 60.4907 49.7629 60.6773C49.9495 60.8639 50.0543 61.117 50.0543 61.3809C50.0543 61.6448 49.9495 61.8979 49.7629 62.0845C49.5762 62.2711 49.3232 62.3759 49.0593 62.3759C48.7881 62.3674 48.5183 62.4178 48.2684 62.5234C48.0185 62.629 47.7944 62.7875 47.6115 62.9879C47.4586 63.1342 47.3678 63.3337 47.3578 63.5451C47.3926 63.7988 48.0095 64.366 48.9946 64.2764C49.2585 64.2527 49.521 64.3347 49.7244 64.5045C49.9278 64.6743 50.0554 64.918 50.0792 65.1819C50.1029 65.4458 50.0209 65.7083 49.8511 65.9117C49.6812 66.1151 49.4376 66.2427 49.1737 66.2665L48.7807 66.2764Z" fill="#DBDBDB"/>
<path d="M48.0937 20.6147C47.8298 20.6147 47.5767 20.5099 47.3901 20.3233C47.2035 20.1367 47.0986 19.8836 47.0986 19.6197V2.73404C47.0986 2.47014 47.2035 2.21705 47.3901 2.03045C47.5767 1.84385 47.8298 1.73901 48.0937 1.73901C48.3576 1.73901 48.6106 1.84385 48.7973 2.03045C48.9839 2.21705 49.0887 2.47014 49.0887 2.73404V19.6197C49.0887 19.8836 48.9839 20.1367 48.7973 20.3233C48.6106 20.5099 48.3576 20.6147 48.0937 20.6147Z" fill="#DBDBDB"/>
<path d="M16.4125 52.963C16.3165 52.9644 16.2209 52.951 16.129 52.9232C15.8765 52.8482 15.6641 52.6763 15.5382 52.445C15.4123 52.2137 15.3832 51.942 15.4573 51.6893C17.2389 45.7539 20.0623 40.1828 23.7956 35.2365C26.4943 31.6361 29.675 28.4236 33.2484 25.6892C38.3032 21.8832 43.6912 19.9429 47.7957 18.6693C47.9205 18.6304 48.0517 18.6165 48.1819 18.6284C48.3121 18.6402 48.4386 18.6776 48.5544 18.7383C48.6701 18.7991 48.7727 18.882 48.8564 18.9824C48.9401 19.0828 49.0031 19.1987 49.042 19.3235C49.0809 19.4483 49.0948 19.5796 49.0829 19.7097C49.0711 19.8399 49.0337 19.9664 48.973 20.0822C48.9122 20.1979 48.8293 20.3005 48.7289 20.3842C48.6285 20.4679 48.5126 20.5309 48.3878 20.5698C44.4077 21.7987 39.2733 23.6693 34.4574 27.2863C31.0217 29.9041 27.9631 32.9828 25.3678 36.4355C21.8001 41.1881 19.1049 46.5365 17.4076 52.2316C17.3483 52.4478 17.2178 52.6376 17.0372 52.7703C16.8566 52.903 16.6365 52.9709 16.4125 52.963Z" fill="#DBDBDB"/>
<path d="M79.0537 52.9929C78.9526 52.9926 78.852 52.9776 78.7552 52.9481C73.7392 51.395 69.0273 48.9919 64.8248 45.8436C61.2514 43.1093 58.0707 39.8968 55.372 36.2963C51.6411 31.3577 48.8331 25.7856 47.0835 19.8485C47.0376 19.721 47.0183 19.5854 47.0267 19.4501C47.0351 19.3148 47.0711 19.1827 47.1324 19.0618C47.1937 18.9409 47.2791 18.8338 47.3833 18.7471C47.4874 18.6604 47.6082 18.5959 47.7382 18.5575C47.8682 18.5192 48.0047 18.5078 48.1393 18.524C48.2738 18.5403 48.4037 18.5839 48.5208 18.6522C48.6379 18.7204 48.7398 18.8119 48.8203 18.9209C48.9008 19.03 48.9582 19.1543 48.9889 19.2863C50.6712 24.992 53.3677 30.3478 56.9492 35.0973C59.5305 38.5578 62.5775 41.6451 66.0039 44.2715C70.0281 47.2881 74.5419 49.5887 79.3472 51.0725C79.5744 51.1431 79.7688 51.2927 79.8952 51.4943C80.0215 51.6958 80.0715 51.936 80.036 52.1712C80.0005 52.4065 79.8819 52.6212 79.7017 52.7765C79.5215 52.9318 79.2916 53.0174 79.0537 53.0178V52.9929Z" fill="#DBDBDB"/>
<path d="M73.5021 19.5798C74.3827 20.7739 80.7061 29.555 79.925 36.1471C79.7907 37.2565 79.5619 39.167 78.0444 40.6844C76.8093 41.8425 75.1945 42.5111 73.5021 42.565C71.8115 42.5099 70.1987 41.8414 68.9648 40.6844C67.4424 39.167 67.2136 37.2565 67.0842 36.1471C66.2981 29.555 72.6215 20.7739 73.5021 19.5798Z" fill="white"/>
<path d="M73.5023 43.5599H73.4526C71.5148 43.4936 69.668 42.7222 68.2586 41.3908C66.4974 39.6246 66.2337 37.4405 66.0944 36.2664C65.3083 29.6644 70.9501 21.3708 72.7014 18.9877C72.794 18.8625 72.9148 18.7609 73.0539 18.6909C73.193 18.6209 73.3466 18.5845 73.5023 18.5847C73.6581 18.5845 73.8117 18.6209 73.9508 18.6909C74.0899 18.7609 74.2107 18.8625 74.3033 18.9877C76.0546 21.3708 81.6964 29.6644 80.9103 36.2664C80.771 37.4405 80.5123 39.6246 78.7461 41.3908C77.338 42.7211 75.4931 43.4924 73.5571 43.5599H73.5023ZM73.5023 21.3061C71.5471 24.1867 67.4625 30.9081 68.0695 36.0276C68.1988 37.0972 68.3929 38.7042 69.6665 39.9828C70.6843 40.9993 72.0639 41.5703 73.5023 41.5703C74.9408 41.5703 76.3204 40.9993 77.3382 39.9828C78.6168 38.7042 78.8058 37.0972 78.9352 36.0325C79.5471 30.9081 75.4626 24.1867 73.5023 21.3061Z" fill="#DBDBDB"/>
<path d="M53.2286 80.7143H42.8505C42.2291 80.7347 41.61 80.6299 41.0299 80.4061C40.4499 80.1824 39.9208 79.8443 39.474 79.4119C39.0273 78.9796 38.672 78.4618 38.4294 77.8894C38.1868 77.317 38.0618 76.7016 38.0618 76.0799C38.0618 75.4582 38.1868 74.8429 38.4294 74.2705C38.672 73.6981 39.0273 73.1803 39.474 72.748C39.9208 72.3156 40.4499 71.9775 41.0299 71.7538C41.61 71.53 42.2291 71.4252 42.8505 71.4456H53.2286C53.85 71.4252 54.4691 71.53 55.0491 71.7538C55.6292 71.9775 56.1583 72.3156 56.6051 72.748C57.0518 73.1803 57.4071 73.6981 57.6497 74.2705C57.8923 74.8429 58.0173 75.4582 58.0173 76.0799C58.0173 76.7016 57.8923 77.317 57.6497 77.8894C57.4071 78.4618 57.0518 78.9796 56.6051 79.4119C56.1583 79.8443 55.6292 80.1824 55.0491 80.4061C54.4691 80.6299 53.85 80.7347 53.2286 80.7143ZM42.8505 73.4357C42.4936 73.4202 42.1372 73.4771 41.8029 73.603C41.4686 73.7289 41.1632 73.9212 40.9052 74.1683C40.6472 74.4153 40.4418 74.7121 40.3016 75.0406C40.1613 75.3692 40.089 75.7227 40.089 76.0799C40.089 76.4372 40.1613 76.7907 40.3016 77.1193C40.4418 77.4478 40.6472 77.7446 40.9052 77.9916C41.1632 78.2387 41.4686 78.431 41.8029 78.5569C42.1372 78.6828 42.4936 78.7397 42.8505 78.7242H53.2286C53.5855 78.7397 53.9419 78.6828 54.2762 78.5569C54.6105 78.431 54.9159 78.2387 55.1739 77.9916C55.4319 77.7446 55.6372 77.4478 55.7775 77.1193C55.9178 76.7907 55.9901 76.4372 55.9901 76.0799C55.9901 75.7227 55.9178 75.3692 55.7775 75.0406C55.6372 74.7121 55.4319 74.4153 55.1739 74.1683C54.9159 73.9212 54.6105 73.7289 54.2762 73.603C53.9419 73.4771 53.5855 73.4202 53.2286 73.4357H42.8505Z" fill="#DBDBDB"/>
</svg>
