<svg width="80" height="16" viewBox="0 0 80 16" fill="none" xmlns="http://www.w3.org/2000/svg">
<path d="M9.11917 11.3055V15.9993H6.59108V11.3055H0V9.09447H15.7144V11.3055H9.11917ZM4.92485 7.71928C2.66762 7.71928 1.14913 6.21233 1.14913 3.91074C1.14913 1.60914 2.65531 0.0898438 4.92485 0.0898438H10.8018C13.059 0.0898438 14.5734 1.61326 14.5734 3.91074C14.5734 6.20822 13.059 7.71928 10.8018 7.71928H4.92485ZM5.19571 2.30086C4.9859 2.2973 4.77757 2.33682 4.58354 2.417C4.38951 2.49718 4.21387 2.61632 4.06743 2.7671C3.92098 2.91788 3.80681 3.09711 3.73194 3.29378C3.65708 3.49045 3.62309 3.70041 3.63207 3.91074C3.61872 4.1205 3.64938 4.33074 3.72206 4.52787C3.79475 4.725 3.90784 4.90465 4.05404 5.0552C4.20024 5.20575 4.37629 5.32387 4.57082 5.40191C4.76535 5.47995 4.97404 5.51618 5.1834 5.50827H10.5186C10.729 5.51796 10.9391 5.48305 11.1351 5.4058C11.3311 5.32856 11.5087 5.21071 11.6562 5.05996C11.8038 4.90922 11.918 4.72895 11.9914 4.53093C12.0648 4.33291 12.0958 4.12158 12.0823 3.91074C12.0955 3.70043 12.0648 3.48966 11.9923 3.29191C11.9197 3.09416 11.8068 2.91377 11.6608 2.76226C11.5148 2.61076 11.3389 2.49147 11.1444 2.41202C10.9498 2.33257 10.7409 2.29471 10.531 2.30086H5.19571Z" fill="#E95454"/>
<path d="M16.9368 13.4637V5.76428H23.257V2.79156H16.9204V0.580546H25.7523V7.95471H19.4321V11.2486H26.926V13.4637H16.9368ZM28.3173 16V0H30.7797V16H28.3173Z" fill="#E95454"/>
<path d="M41.7518 9.6387C41.7518 12.1585 39.9461 13.896 37.1471 13.896C34.3481 13.896 32.5424 12.1585 32.5424 9.6387V4.49202C32.5424 1.97633 34.3481 0.234689 37.1471 0.234689C39.9461 0.234689 41.7518 1.97633 41.7518 4.49202V9.6387ZM39.2607 4.76377C39.2607 3.33505 38.5548 2.4457 37.1471 2.4457C35.7394 2.4457 35.0335 3.33505 35.0335 4.76377V9.36696C35.0335 10.7998 35.7394 11.685 37.1471 11.685C38.5548 11.685 39.2607 10.7998 39.2607 9.36696V4.76377ZM43.4673 16V0H45.9667V5.48842H48.1336V7.8806H45.9667V16H43.4673Z" fill="#E95454"/>
<path d="M48.0168 13.262V11.051H49.6585V2.88214H48.1769V0.687596H58.3836V2.88214H56.7913V11.0345H58.6545V13.2455L48.0168 13.262ZM54.3001 2.88214H52.1496V11.0345H54.3001V2.88214ZM59.5369 15.9835V0H62.0321V5.81781H64.199V8.20587H62.0321V16L59.5369 15.9835Z" fill="#E95454"/>
<path d="M64.286 14.9295V12.7185H80.0004V14.9295H64.286ZM65.747 10.6557V0.411743H78.5352V2.62687H68.2423V4.43851H78.3547V6.61246H68.2423V8.44468H78.843V10.6557H65.747Z" fill="#E95454"/>
</svg>
