<svg width="100" height="20" viewBox="0 0 100 20" fill="none" xmlns="http://www.w3.org/2000/svg">
<path d="M11.399 14.1328V20H8.23885V14.1328H0V11.3691H19.6429V14.1328H11.399ZM6.15606 9.65008C3.33453 9.65008 1.43641 7.76639 1.43641 4.8894C1.43641 2.01241 3.31914 0.113281 6.15606 0.113281H13.5023C16.3238 0.113281 18.2168 2.01755 18.2168 4.8894C18.2168 7.76125 16.3238 9.65008 13.5023 9.65008H6.15606ZM6.49464 2.87705C6.23237 2.8726 5.97196 2.922 5.72943 3.02222C5.48689 3.12245 5.26734 3.27137 5.08428 3.45985C4.90122 3.64832 4.75851 3.87236 4.66493 4.1182C4.57134 4.36404 4.52886 4.62648 4.54009 4.8894C4.5234 5.1516 4.56172 5.4144 4.65258 5.66081C4.74343 5.90723 4.8848 6.13179 5.06755 6.31998C5.2503 6.50817 5.47036 6.65581 5.71353 6.75336C5.95669 6.85091 6.21755 6.8962 6.47925 6.88631H13.1483C13.4113 6.89843 13.6738 6.85479 13.9188 6.75823C14.1639 6.66167 14.3858 6.51437 14.5703 6.32593C14.7547 6.1375 14.8975 5.91216 14.9892 5.66464C15.081 5.41711 15.1197 5.15295 15.1029 4.8894C15.1194 4.62651 15.0811 4.36305 14.9903 4.11586C14.8996 3.86867 14.7585 3.64319 14.576 3.4538C14.3935 3.26442 14.1737 3.11531 13.9305 3.016C13.6873 2.91669 13.4261 2.86937 13.1637 2.87705H6.49464Z" fill="#BD1F36"/>
<path d="M21.1729 16.8296V7.20535H29.0731V3.48945H21.1523V0.725682H32.1922V9.94339H24.2919V14.0607H33.6594V16.8296H21.1729ZM35.3985 20V0H38.4765V20H35.3985Z" fill="#BD1F36"/>
<path d="M52.1876 12.0484C52.1876 15.1981 49.9304 17.37 46.4317 17.37C42.933 17.37 40.6758 15.1981 40.6758 12.0484V5.61503C40.6758 2.47041 42.933 0.293361 46.4317 0.293361C49.9304 0.293361 52.1876 2.47041 52.1876 5.61503V12.0484ZM49.0737 5.95471C49.0737 4.16881 48.1913 3.05713 46.4317 3.05713C44.6721 3.05713 43.7897 4.16881 43.7897 5.95471V11.7087C43.7897 13.4997 44.6721 14.6063 46.4317 14.6063C48.1913 14.6063 49.0737 13.4997 49.0737 11.7087V5.95471ZM54.332 20V0H57.4562V6.86053H60.1649V9.85075H57.4562V20H54.332Z" fill="#BD1F36"/>
<path d="M60.0195 16.5775V13.8137H62.0715V3.60268H60.2196V0.859496H72.978V3.60268H70.9876V13.7931H73.3166V16.5569L60.0195 16.5775ZM67.8736 3.60268H65.1855V13.7931H67.8736V3.60268ZM74.4196 19.9794V0H77.5386V7.27226H80.2473V10.2573H77.5386V20L74.4196 19.9794Z" fill="#BD1F36"/>
<path d="M80.3555 18.6628V15.899H99.9984V18.6628H80.3555ZM82.1818 13.3206V0.515625H98.167V3.28454H85.3008V5.54908H97.9413V8.26652H85.3008V10.5568H98.5518V13.3206H82.1818Z" fill="#BD1F36"/>
</svg>
