<svg width="141" height="16" viewBox="0 0 141 16" fill="none" xmlns="http://www.w3.org/2000/svg">
<path d="M7.55891 8.24417H1.94998C0.335951 8.24417 0 7.96143 0 6.61299V3.04616C0 1.70497 0.335951 1.41499 1.94998 1.41499H6.82858C7.42014 1.41499 7.45666 1.77022 7.45666 2.49519C7.45666 3.22015 7.42014 3.57539 6.82858 3.57539H2.99435C2.77525 3.57539 2.65109 3.69863 2.65109 3.90162V5.75028C2.65109 5.95327 2.77525 6.07652 2.99435 6.07652H7.55891C8.15047 6.07652 8.18699 6.43175 8.18699 7.15672C8.18699 7.88893 8.15047 8.24417 7.55891 8.24417ZM8.4353 14.7544H3.75389C1.64324 14.7544 0.255615 13.5944 0.255615 11.9487C0.255615 10.2668 1.63594 9.10687 3.75389 9.10687H8.4353C10.546 9.10687 11.9482 10.2668 11.9482 11.9487C11.9482 13.6017 10.5533 14.7544 8.4353 14.7544ZM3.75389 12.5795H8.4353C8.94653 12.5795 9.24597 12.304 9.24597 11.9487C9.24597 11.579 8.95384 11.2818 8.4353 11.2818H3.75389C3.24266 11.2818 2.95783 11.5718 2.95783 11.9487C2.96514 12.304 3.24266 12.5795 3.75389 12.5795ZM12.7223 6.20701H11.5465V8.12817C11.5465 8.74439 10.9988 8.78789 10.2246 8.78789C9.45046 8.78789 8.8881 8.75164 8.8881 8.12817V1.78472C8.8881 1.1685 9.45046 1.125 10.2246 1.125C10.9988 1.125 11.5465 1.16125 11.5465 1.78472V3.62613H12.7223C13.3285 3.62613 13.3869 4.19886 13.3869 4.92382C13.3796 5.68504 13.3285 6.20701 12.7223 6.20701Z" fill="#FF760E"/>
<path d="M25.8432 9.44781H14.1215C13.4861 9.44781 13.3984 9.03458 13.3984 8.27337C13.3984 7.5629 13.4861 7.11342 14.1215 7.11342H25.8432C26.4786 7.11342 26.5663 7.5629 26.5663 8.27337C26.5663 9.03458 26.4859 9.44781 25.8432 9.44781ZM23.1775 6.07672V4.24981C23.1775 4.00332 23.0388 3.86557 22.8197 3.86557H14.8591C14.2091 3.86557 14.0703 3.45234 14.0703 2.66213C14.0703 1.90817 14.2018 1.42969 14.8591 1.42969H23.8275C25.4416 1.42969 25.8432 1.83567 25.8432 3.30735V6.07672C25.8432 6.69294 25.2955 6.73644 24.5213 6.73644C23.7399 6.72919 23.1775 6.69294 23.1775 6.07672ZM16.8091 10.5498V11.8982C16.8091 12.0867 16.9478 12.2099 17.1669 12.2099H25.3539C26.0039 12.2099 26.1427 12.6449 26.1427 13.4134C26.1427 14.1673 26.0112 14.6168 25.3539 14.6168H16.1737C14.5743 14.6168 14.1434 14.3631 14.1434 12.9276V10.5498C14.1434 9.93354 14.6911 9.89004 15.4653 9.89004C16.2467 9.89729 16.8091 9.93354 16.8091 10.5498Z" fill="#FF760E"/>
<path d="M27.9766 12.6018V2.85098C27.9766 1.63304 28.1737 1.4228 29.4445 1.4228H33.7681C35.0461 1.4228 35.236 1.63304 35.236 2.85098V12.6018C35.236 13.8197 35.0388 14.03 33.7681 14.03H29.4445C28.1737 14.03 27.9766 13.8197 27.9766 12.6018ZM32.731 11.3331V4.12692C32.731 3.96018 32.6361 3.85143 32.4827 3.85143H30.7445C30.5911 3.85143 30.4962 3.96018 30.4962 4.12692V11.3331C30.4962 11.4998 30.5911 11.6086 30.7445 11.6086H32.4827C32.6434 11.6086 32.731 11.4998 32.731 11.3331ZM36.872 14.0372V1.86503C36.872 1.21981 37.4343 1.13281 38.2085 1.13281C38.9826 1.13281 39.5304 1.21981 39.5304 1.86503V5.99008H40.7062C41.3124 5.99008 41.3708 6.56281 41.3708 7.28777C41.3708 8.05624 41.3197 8.59996 40.7062 8.59996H39.5304V14.0372C39.5304 14.6824 38.9826 14.7694 38.2085 14.7694C37.4343 14.7694 36.872 14.6897 36.872 14.0372Z" fill="#FF760E"/>
<path d="M47.819 4.21346H48.3594V1.75582C48.3594 1.1686 48.8414 1.19035 49.5718 1.19035C50.3021 1.19035 50.7549 1.1686 50.7549 1.75582V8.701C50.7549 9.28822 50.3021 9.26647 49.5718 9.26647C48.8414 9.26647 48.3594 9.28822 48.3594 8.701V6.48985H47.819C47.5268 6.48985 47.2566 6.35211 47.0886 6.09112C46.3583 7.69329 44.7443 9.20122 42.9623 9.99144C42.3853 10.2379 42.0859 9.87544 41.7572 9.33172C41.4286 8.79524 41.3263 8.30952 41.823 8.09203C42.6336 7.73679 43.6196 7.04808 44.1308 6.44635H42.3999C41.9033 6.44635 41.896 6.15637 41.896 5.5039C41.896 4.90218 41.9033 4.56144 42.3999 4.56144H45.1094C45.1752 4.32945 45.2336 4.08296 45.2628 3.82198C45.292 3.61899 45.1825 3.48124 44.9999 3.48124H42.473C41.8814 3.48124 41.8887 3.14051 41.8887 2.46629C41.8887 1.82107 41.8814 1.42959 42.473 1.42959H45.8763C47.5707 1.42959 47.9212 2.2343 47.6729 4.03947C47.6583 4.10471 47.6583 4.17721 47.6437 4.24246C47.7094 4.21346 47.7605 4.21346 47.819 4.21346ZM52.8948 14.74C51.2807 14.3992 49.0313 13.3118 47.7678 12.3041C46.5993 13.4495 44.7297 14.595 43.0937 14.9212C42.5314 15.0299 42.2027 14.45 41.9982 13.7685C41.8084 13.1233 41.8157 12.8551 42.4072 12.6956C44.1965 12.2316 46.2195 10.4554 46.9645 9.08523C47.1982 8.672 47.6072 8.81699 48.3229 9.03448C49.0678 9.26647 49.5791 9.53471 49.36 10.0277L49.1336 10.4844C50.1779 11.3326 52.033 12.2098 53.5447 12.5361C54.1217 12.6593 54.1436 13.0363 53.9537 13.696C53.7711 14.3702 53.4717 14.8632 52.8948 14.74ZM51.3465 9.11423V1.69058C51.3465 1.10335 51.8431 1.1251 52.588 1.1251C53.3329 1.1251 53.815 1.10335 53.815 1.69058V9.11423C53.815 9.70145 53.3329 9.6797 52.588 9.6797C51.8431 9.6797 51.3465 9.70145 51.3465 9.11423Z" fill="#FF760E"/>
<path d="M89.782 4.55664H88.2775C88.1242 4.55664 88 4.67988 88 4.83213V7.31876C88 7.471 88.1242 7.59425 88.2775 7.59425H89.782C90.6146 7.59425 91.2281 6.93453 91.2281 6.07182C91.2281 5.21636 90.6219 4.55664 89.782 4.55664Z" fill="#FF760E"/>
<path d="M93.8945 0H60.3213C58.7219 0 57.4219 1.29044 57.4219 2.87812V13.1219C57.4219 14.7096 58.7219 16 60.3213 16H93.9018C95.5012 16 96.8012 14.7096 96.8012 13.1219V2.87812C96.7939 1.29044 95.5012 0 93.8945 0ZM72.2037 13.2959C72.2037 13.6004 71.9554 13.8469 71.6487 13.8469H70.042C69.7352 13.8469 69.4869 13.6004 69.4869 13.2959V7.96013C69.4869 7.67739 69.1144 7.5759 68.9684 7.81514L66.4853 11.8604C66.4341 11.9402 66.3465 11.9909 66.2516 11.9909C66.1566 11.9909 66.069 11.9402 66.0178 11.8604L63.5347 7.81514C63.3887 7.5759 63.0162 7.67739 63.0162 7.96013V13.2959C63.0162 13.6004 62.7679 13.8469 62.4611 13.8469H60.8544C60.5477 13.8469 60.2994 13.6004 60.2994 13.2959V2.85637C60.2994 2.39964 60.6718 2.02266 61.1393 2.02266H62.5561C62.8482 2.02266 63.1184 2.1749 63.2718 2.42139L66.0252 6.88718C66.1347 7.06117 66.3903 7.06117 66.4999 6.88718L69.2532 2.42139C69.4066 2.1749 69.6768 2.02266 69.9689 2.02266H71.3639C71.824 2.02266 72.2037 2.39239 72.2037 2.85637V13.2959ZM84.1227 2.75487L80.6683 13.2814C80.5587 13.6221 80.2374 13.8541 79.8722 13.8541H77.6155C77.2503 13.8541 76.929 13.6221 76.8194 13.2814L73.365 2.75487C73.2481 2.39964 73.5183 2.0299 73.8981 2.0299H75.6947C75.943 2.0299 76.1548 2.1894 76.2278 2.42139L78.4773 9.84504C78.5576 10.106 78.9301 10.106 79.0104 9.84504L81.2598 2.42139C81.3329 2.1894 81.5446 2.0299 81.793 2.0299H83.5896C83.9693 2.0299 84.2396 2.39239 84.1227 2.75487ZM89.7901 10.135H88.2856C88.1322 10.135 88.0081 10.2583 88.0081 10.4105V13.2959C88.0081 13.6004 87.7597 13.8469 87.453 13.8469H85.8463C85.5395 13.8469 85.2912 13.6004 85.2912 13.2959V2.85637C85.2912 2.39964 85.6637 2.02266 86.1311 2.02266H89.8047C92.1563 2.02266 93.9748 3.82782 93.9748 6.07522C93.9602 8.32986 92.1417 10.135 89.7901 10.135Z" fill="#FF760E"/>
<path d="M99.7344 5.72228V5.14956C99.7344 3.03265 101.348 1.52473 103.685 1.52473C106.015 1.52473 107.637 3.0399 107.637 5.14956V5.72228C107.637 7.83918 106.023 9.34711 103.685 9.34711C101.356 9.34711 99.7344 7.83193 99.7344 5.72228ZM103.284 10.6955V12.1092C103.284 12.3122 103.393 12.4355 103.598 12.4355H111.536C112.186 12.4355 112.325 12.8704 112.325 13.6534C112.325 14.4074 112.194 14.8569 111.536 14.8569H102.495C100.954 14.8569 100.618 14.5524 100.618 13.1387V10.7028C100.618 10.0866 101.166 10.0431 101.94 10.0431C102.721 10.0431 103.284 10.0793 103.284 10.6955ZM102.364 5.14956V5.72228C102.364 6.59949 102.875 7.20121 103.685 7.20121C104.496 7.20121 105.007 6.59949 105.007 5.72228V5.14956C105.007 4.27235 104.496 3.67063 103.685 3.67063C102.875 3.67063 102.364 4.27235 102.364 5.14956ZM109.36 10.5433V2.02495C109.36 1.40873 109.922 1.36523 110.697 1.36523C111.471 1.36523 112.019 1.40148 112.019 2.02495V10.5433C112.019 11.1595 111.471 11.203 110.697 11.203C109.922 11.1958 109.36 11.1595 109.36 10.5433Z" fill="#FF760E"/>
<path d="M120.492 6.84598H116.68V7.61444C116.68 7.78118 116.775 7.87543 116.972 7.87543H121.303C121.88 7.87543 121.916 8.31041 121.916 8.94113C121.916 9.58635 121.88 9.97783 121.303 9.97783H115.781C114.416 9.97783 114.16 9.78209 114.16 8.57864V3.0544C114.16 1.85096 114.416 1.65522 115.781 1.65522H120.784C121.361 1.65522 121.398 2.03945 121.398 2.69192C121.398 3.32264 121.361 3.75762 120.784 3.75762H116.972C116.767 3.75762 116.68 3.85187 116.68 4.01861V4.75807H120.499C121.076 4.75807 121.113 5.14231 121.113 5.79478C121.106 6.43275 121.069 6.84598 120.492 6.84598ZM117.264 11.0653V12.1962C117.264 12.3485 117.374 12.4427 117.556 12.4427H125.663C126.313 12.4427 126.452 12.8922 126.452 13.6607C126.452 14.4146 126.32 14.8496 125.663 14.8496H116.344C114.942 14.8496 114.613 14.5959 114.613 13.4214V11.058C114.613 10.4418 115.161 10.3983 115.935 10.3983C116.709 10.4128 117.264 10.4491 117.264 11.0653ZM122.172 4.48259H123.559V2.02495C123.559 1.40873 124.122 1.36523 124.896 1.36523C125.67 1.36523 126.218 1.40148 126.218 2.02495V10.681C126.218 11.2973 125.67 11.3408 124.896 11.3408C124.122 11.3408 123.559 11.3045 123.559 10.681V6.95472H122.172C121.58 6.95472 121.529 6.47624 121.529 5.72228C121.522 4.99731 121.58 4.48259 122.172 4.48259Z" fill="#FF760E"/>
<path d="M134.32 8.47715C133.451 7.95517 132.305 6.98372 131.604 6.27325C131.122 7.09246 130.209 7.88993 129.529 8.44815C129.047 8.83238 128.624 8.68014 128.091 8.14366C127.609 7.65069 127.316 7.06346 127.725 6.70823C129.084 5.59903 130.048 4.32309 130.157 2.01045C130.187 1.39423 130.734 1.41598 131.523 1.44498C132.348 1.47398 132.874 1.60447 132.801 2.24244C132.757 2.64117 132.677 3.48213 132.582 3.85187C133.269 4.68558 134.569 5.80203 135.606 6.411C136.073 6.67198 136.044 7.09246 135.642 7.73043C135.255 8.34665 134.802 8.76714 134.32 8.47715ZM131.231 9.33986V9.94883H137.373V9.33986C137.373 8.78163 137.914 8.83963 138.695 8.83963C139.469 8.83963 140.002 8.78888 140.002 9.33986V13.5882C140.002 14.6249 139.856 14.8568 138.658 14.8568H129.953C128.755 14.8568 128.609 14.7264 128.609 13.6897V9.33986C128.609 8.78163 129.157 8.83963 129.931 8.83963C130.705 8.83963 131.231 8.78163 131.231 9.33986ZM137.373 12.6312V11.9352H131.231V12.6312C131.231 12.7544 131.311 12.8197 131.436 12.8197H137.169C137.293 12.8197 137.373 12.7544 137.373 12.6312ZM137.344 7.93342V2.02495C137.344 1.40873 137.906 1.36523 138.68 1.36523C139.455 1.36523 140.002 1.40148 140.002 2.02495V7.93342C140.002 8.54965 139.455 8.59314 138.68 8.59314C137.899 8.59314 137.344 8.54965 137.344 7.93342Z" fill="#FF760E"/>
</svg>
